# xmcd
#
# Track frame offsets: 
#        150
#        17492
#        34308
#        46454
#        61234
#        74758
#        88968
#        101075
#        116957
#        125734
#        137194
#        154390
#        181745
#        193220
#
# Disc length: 2935 seconds
#
# Revision: 0
# Processed by: cddbd v1.5.2PL0 Copyright (c) Steve Scherf et al.
# Submitted via: ExactAudioCopy v0.99pb4
#
DISCID=da0b750e
DTITLE=Julie Roberts and Gary Holder - Don't Tell Me To Stop
DYEAR=2008
DGENRE=Blues
TTITLE0=Pour (When it's love)
TTITLE1=Phantom Doll
TTITLE2=Fifteen Summers
TTITLE3=Stop
TTITLE4=It Never Entered My Mind
TTITLE5=Baby Can I Hold You
TTITLE6=Empty Bed Blues
TTITLE7=Give Me One Reason
TTITLE8=Route 66
TTITLE9=Wave
TTITLE10=I See Your Eyes
TTITLE11=Who Knows Where the Time Goes
TTITLE12=And So It Goes
TTITLE13=Don't Let Me Be Misunderstood
EXTD=
EXTT0=
EXTT1=
EXTT2=
EXTT3=
EXTT4=
EXTT5=
EXTT6=
EXTT7=
EXTT8=
EXTT9=
EXTT10=
EXTT11=
EXTT12=
EXTT13=
PLAYORDER=
